<svg xmlns="http://www.w3.org/2000/svg" viewBox="0 0 326.44 326.44"><defs><style>.cls-1{fill:#2c3e50;}.cls-2{fill:#fff;}</style></defs><g id="Layer_2" data-name="Layer 2"><g id="Layer_1-2" data-name="Layer 1"><circle class="cls-1" cx="163.22" cy="163.22" r="163.22"/><path class="cls-2" d="M145.38,198.14a72.81,72.81,0,0,1-4,25,35.15,35.15,0,0,1-13,17.3q-9,6.32-24.19,6.31-15.45,0-25-9.13t-9.52-30.12V139.64H87.86v68q0,9.53,2.77,14.72a15.39,15.39,0,0,0,7.19,7.19,22.31,22.31,0,0,0,9.28,2q11.46,0,18.17-4.42a24.51,24.51,0,0,0,9.62-12,46.52,46.52,0,0,0,2.92-16.81Zm-11-58.5h18.18V244.78h-17.3l-.88-24.29Z"/><path class="cls-2" d="M194,285.2H175.8V139.64h16.52L194,159.86Zm70.74-91.82a74.18,74.18,0,0,1-4.76,27.4,43.25,43.25,0,0,1-13.85,19q-9.07,6.94-22.1,6.94-13.51,0-22.64-5.83a39.25,39.25,0,0,1-14.29-16.56q-5.15-10.74-6.7-25.41V187.65q1.56-15.45,6.75-26.63a40.91,40.91,0,0,1,14.29-17.25q9.08-6.06,22.3-6.07t22.34,6.7q9.13,6.72,13.9,18.81t4.76,28.13Zm-18.17-2a60.22,60.22,0,0,0-3-19.29,30.65,30.65,0,0,0-9.23-14q-6.27-5.25-16.08-5.25a27.2,27.2,0,0,0-11.66,2.33,26,26,0,0,0-8.46,6.27,33.49,33.49,0,0,0-5.68,8.94,50.37,50.37,0,0,0-3.26,10.35V206a56.9,56.9,0,0,0,5.39,12.78,27.87,27.87,0,0,0,9.24,9.67q5.78,3.69,14.62,3.69,9.72,0,15.93-5.35a31.36,31.36,0,0,0,9.19-14.13,60.31,60.31,0,0,0,3-19.29Z"/><path class="cls-2" d="M232.67,116.5H93.76a6.07,6.07,0,0,1-4.29-10.36l69.46-69.46a6.07,6.07,0,0,1,8.58,0L237,106.14A6.07,6.07,0,0,1,232.67,116.5Z"/></g></g></svg>